<svg xmlns="http://www.w3.org/2000/svg"  viewBox="0 0 40 40" width="40px" height="40px"><path fill="#8b75a1" d="M24.3,5L25,7h-9.9l0.7-2H24.3 M24.3,4h-8.6c-0.4,0-0.8,0.3-0.9,0.7L14,7v1h12V7l-0.8-2.3	C25.1,4.3,24.7,4,24.3,4L24.3,4z"/><path fill="#dcd5f2" stroke="#8b75a1" stroke-miterlimit="10" d="M8,39.5c-0.8,0-1.5-0.7-1.5-1.5c0,0,0-7.9,0-13s0-14.5,0-14.5h27c0,0,0,8.5,0,14.5s0,13,0,13	c0,0.8-0.7,1.5-1.5,1.5H8z"/><path fill="#dcd5f2" stroke="#8b75a1" stroke-miterlimit="10" d="M4.5,10.5V9c0-0.8,0.7-1.5,1.5-1.5h28c0.8,0,1.5,0.7,1.5,1.5v1.5H4.5z"/><rect width="1" height="24" x="24" y="13" fill="#8b75a1"/><rect width="1" height="24" x="15" y="13" fill="#8b75a1"/><rect width="1" height="24" x="10" y="13" fill="#8b75a1"/><rect width="1" height="24" x="29" y="13" fill="#8b75a1"/></svg>