<?xml version="1.0" encoding="utf-8"?><svg viewBox="0 0 40 40" xmlns="http://www.w3.org/2000/svg" xmlns:xlink="http://www.w3.org/1999/xlink"><style>:root>svg{display:none}:root>svg:target{display:block}</style><svg viewBox="0 0 40 40" id="close" xmlns="http://www.w3.org/2000/svg"><path fill="#f78f8f" d="M21 24.15L8.857 36.293l-4.15-4.15L16.85 20 4.707 7.857l4.15-4.15L21 15.85 33.143 3.707l4.15 4.15L25.15 20l12.143 12.143-4.15 4.15z"/><path fill="#c74343" d="M33.143 4.414l3.443 3.443L25.15 19.293l-.707.707.707.707 11.436 11.436-3.443 3.443L21.707 24.15 21 23.443l-.707.707L8.857 35.586l-3.443-3.443L16.85 20.707l.707-.707-.707-.707L5.414 7.857l3.443-3.443L20.293 15.85l.707.707.707-.707L33.143 4.414m0-1.414L21 15.143 8.857 3 4 7.857 16.143 20 4 32.143 8.857 37 21 24.857 33.143 37 38 32.143 25.857 20 38 7.857 33.143 3z"/></svg><svg viewBox="0 0 40 40" id="delete" xmlns="http://www.w3.org/2000/svg"><path fill="#8b75a1" d="M24.3 5l.7 2h-9.9l.7-2h8.5m0-1h-8.6c-.4 0-.8.3-.9.7L14 7v1h12V7l-.8-2.3c-.1-.4-.5-.7-.9-.7z"/><path fill="#dcd5f2" stroke="#8b75a1" stroke-miterlimit="10" d="M8 39.5c-.8 0-1.5-.7-1.5-1.5V25 10.5h27V38c0 .8-.7 1.5-1.5 1.5H8zM4.5 10.5V9c0-.8.7-1.5 1.5-1.5h28c.8 0 1.5.7 1.5 1.5v1.5h-31z"/><path fill="#8b75a1" d="M24 13h1v24h-1zM15 13h1v24h-1zM10 13h1v24h-1zM29 13h1v24h-1z"/></svg><svg viewBox="0 0 40 40" id="download" xmlns="http://www.w3.org/2000/svg"><path fill="#c2e8ff" d="M6.5 28.5c-3.309 0-6-2.691-6-6s2.691-6 6-6a6.03 6.03 0 011.529.204l.494.13.119-.497a4.987 4.987 0 013.53-3.652l.332-.092.034-.341A7.47 7.47 0 0120 5.5a7.457 7.457 0 016.709 4.165l.204.408.425-.165A5.983 5.983 0 0129.5 9.5c3.309 0 6 2.691 6 6 0 .271-.024.556-.075.896l-.058.391.366.147a5.973 5.973 0 013.767 5.565c0 3.309-2.691 6-6 6h-27z"/><path fill="#7496c4" d="M20 6a6.962 6.962 0 016.262 3.888l.406.816.85-.329A5.47 5.47 0 0129.5 10c3.033 0 5.5 2.467 5.5 5.5 0 .247-.022.508-.069.822l-.117.782.734.295A5.474 5.474 0 0139 22.5c0 3.033-2.467 5.5-5.5 5.5h-27C3.467 28 1 25.533 1 22.5S3.467 17 6.5 17c.455 0 .927.063 1.401.188l.99.26.237-.995a4.491 4.491 0 013.177-3.287l.662-.182.068-.683A6.972 6.972 0 0120 6m0-1a8.001 8.001 0 00-7.96 7.202 5.502 5.502 0 00-3.885 4.019A6.497 6.497 0 006.5 16a6.5 6.5 0 100 13h27a6.5 6.5 0 002.42-12.53c.048-.317.08-.64.08-.97A6.5 6.5 0 0029.5 9c-.827 0-1.615.161-2.343.442A7.993 7.993 0 0020 5z"/><path fill="#c2e8ff" d="M17 27h6v2h-6z"/><path fill="#4e7ab5" d="M19 21v14h2V21h5l-6-6-6 6z"/></svg><svg viewBox="0 0 40 40" id="ok" xmlns="http://www.w3.org/2000/svg"><path fill="#bae0bd" d="M20 38.5C9.799 38.5 1.5 30.201 1.5 20S9.799 1.5 20 1.5 38.5 9.799 38.5 20 30.201 38.5 20 38.5z"/><path fill="#5e9c76" d="M20 2c9.925 0 18 8.075 18 18s-8.075 18-18 18S2 29.925 2 20 10.075 2 20 2m0-1C9.507 1 1 9.507 1 20s8.507 19 19 19 19-8.507 19-19S30.493 1 20 1z"/><path fill="none" stroke="#fff" stroke-miterlimit="10" stroke-width="2" d="M11 20l6 6 13-13"/></svg></svg>